<svg width="20" height="20" viewBox="0 0 20 20" fill="none" xmlns="http://www.w3.org/2000/svg">
<path d="M12.5001 2.5H7.50008C5.65913 2.5 4.16675 3.99238 4.16675 5.83333V12.5" stroke="#33363F" stroke-width="1.5"/>
<path d="M7.41675 9.58333C7.41675 8.58857 7.41786 7.90527 7.4766 7.38422C7.53364 6.87828 7.63695 6.61898 7.77838 6.43467C7.87148 6.31334 7.98008 6.20473 8.10142 6.11163C8.28573 5.9702 8.54503 5.86689 9.05097 5.80986C9.57201 5.75112 10.2553 5.75 11.2501 5.75C12.2448 5.75 12.9281 5.75112 13.4492 5.80986C13.9551 5.86689 14.2144 5.9702 14.3987 6.11163C14.5201 6.20473 14.6287 6.31334 14.7218 6.43467C14.8632 6.61898 14.9665 6.87828 15.0236 7.38422C15.0823 7.90527 15.0834 8.58857 15.0834 9.58333V12.9167C15.0834 13.9114 15.0823 14.5947 15.0236 15.1158C14.9665 15.6217 14.8632 15.881 14.7218 16.0653C14.6287 16.1867 14.5201 16.2953 14.3987 16.3884C14.2144 16.5298 13.9551 16.6331 13.4492 16.6901C12.9281 16.7489 12.2448 16.75 11.2501 16.75C10.2553 16.75 9.57201 16.7489 9.05097 16.6901C8.54503 16.6331 8.28573 16.5298 8.10142 16.3884C7.98008 16.2953 7.87148 16.1867 7.77838 16.0653C7.63695 15.881 7.53364 15.6217 7.4766 15.1158C7.41786 14.5947 7.41675 13.9114 7.41675 12.9167V9.58333Z" stroke="#33363F" stroke-width="1.5"/>
</svg>
