<svg width="20" height="20" viewBox="0 0 20 20" fill="none" xmlns="http://www.w3.org/2000/svg">
<path fill-rule="evenodd" clip-rule="evenodd" d="M13.314 10.3594C13.3267 10.2413 13.3332 10.1214 13.3332 9.99996C13.3332 8.15901 11.8408 6.66663 9.99984 6.66663C9.87839 6.66663 9.75847 6.67312 9.64039 6.68578L13.314 10.3594ZM7.08809 8.37612C6.81955 8.85661 6.6665 9.41041 6.6665 9.99996C6.6665 11.8409 8.15889 13.3333 9.99984 13.3333C10.5894 13.3333 11.1432 13.1802 11.6237 12.9117L10.4814 11.7694C10.3279 11.8111 10.1665 11.8333 9.99984 11.8333C8.98732 11.8333 8.1665 11.0125 8.1665 9.99996C8.1665 9.83332 8.18874 9.67188 8.2304 9.51843L7.08809 8.37612Z" fill="#222222"/>
<path fill-rule="evenodd" clip-rule="evenodd" d="M13.4801 14.7683L12.3683 13.6565C11.611 14.0236 10.8129 14.25 9.99981 14.25C8.75462 14.25 7.54472 13.7191 6.4622 12.965C5.3844 12.2142 4.4902 11.2817 3.89246 10.5755C3.68231 10.3272 3.58124 10.2045 3.52103 10.1052C3.48283 10.0422 3.48286 10.0246 3.48291 10.0023L3.48291 10L3.48291 9.99766C3.48286 9.97541 3.48283 9.95783 3.52103 9.89481C3.58124 9.79549 3.68231 9.67282 3.89246 9.42453C4.41212 8.81058 5.15584 8.02561 6.04947 7.33765L4.98093 6.26912C4.04369 7.01328 3.27856 7.82806 2.74753 8.45545L2.67967 8.53515C2.35486 8.91559 1.98291 9.35123 1.98291 10C1.98291 10.6488 2.35486 11.0844 2.67967 11.4648L2.74753 11.5446C3.39204 12.306 4.38141 13.3435 5.60478 14.1958C6.82343 15.0447 8.33231 15.75 9.99981 15.75C11.2717 15.75 12.4512 15.3397 13.4801 14.7683ZM7.65514 4.70069C8.38714 4.42297 9.17402 4.25 9.99981 4.25C11.6673 4.25 13.1762 4.95527 14.3948 5.80423C15.6182 6.65648 16.6076 7.69399 17.2521 8.45545L17.3199 8.53515C17.6448 8.91559 18.0167 9.35123 18.0167 10C18.0167 10.6488 17.6448 11.0844 17.3199 11.4648L17.2521 11.5446C16.9015 11.9587 16.449 12.4545 15.9122 12.9578L14.851 11.8965C15.3488 11.433 15.774 10.9691 16.1072 10.5755C16.3173 10.3272 16.4184 10.2045 16.4786 10.1052C16.5168 10.0422 16.5168 10.0246 16.5167 10.0023L16.5167 10L16.5167 9.99766C16.5168 9.97541 16.5168 9.95783 16.4786 9.89481C16.4184 9.79549 16.3173 9.67282 16.1072 9.42453C15.5094 8.71833 14.6152 7.78585 13.5374 7.03502C12.4549 6.28089 11.245 5.75 9.99981 5.75C9.61206 5.75 9.22773 5.80148 8.8496 5.89515L7.65514 4.70069Z" fill="#222222"/>
<path d="M4.1665 1.66663L17.4998 15" stroke="#222222" stroke-width="1.5"/>
</svg>
