<svg width="24" height="24" viewBox="0 0 24 24" fill="none" xmlns="http://www.w3.org/2000/svg">
<rect width="24" height="24" transform="translate(24 24) rotate(-180)" fill="#F3F4F6"/>
<path d="M4 14L3.29289 13.2929L2.58579 14L3.29289 14.7071L4 14ZM21 6C21 5.44772 20.5523 5 20 5C19.4477 5 19 5.44772 19 6L21 6ZM8.29289 8.29289L3.29289 13.2929L4.70711 14.7071L9.70711 9.70711L8.29289 8.29289ZM3.29289 14.7071L8.29289 19.7071L9.70711 18.2929L4.70711 13.2929L3.29289 14.7071ZM4 15L14 15L14 13L4 13L4 15ZM21 8L21 6L19 6L19 8L21 8ZM14 15C17.866 15 21 11.866 21 8L19 8C19 10.7614 16.7614 13 14 13L14 15Z" fill="black"/>
</svg>
