<svg width="24" height="24" viewBox="0 0 24 24" fill="none" xmlns="http://www.w3.org/2000/svg">
<path d="M2 16L1.46967 16.5303L0.939339 16L1.46967 15.4697L2 16ZM17 15.25C17.4142 15.25 17.75 15.5858 17.75 16C17.75 16.4142 17.4142 16.75 17 16.75L17 15.25ZM6.46967 21.5303L1.46967 16.5303L2.53033 15.4697L7.53033 20.4697L6.46967 21.5303ZM1.46967 15.4697L6.46967 10.4697L7.53033 11.5303L2.53033 16.5303L1.46967 15.4697ZM2 15.25L17 15.25L17 16.75L2 16.75L2 15.25Z" fill="#33363F"/>
<path d="M22 8L22.5303 8.53033L23.0607 8L22.5303 7.46967L22 8ZM7 7.25C6.58579 7.25 6.25 7.58579 6.25 8C6.25 8.41421 6.58579 8.75 7 8.75V7.25ZM17.5303 13.5303L22.5303 8.53033L21.4697 7.46967L16.4697 12.4697L17.5303 13.5303ZM22.5303 7.46967L17.5303 2.46967L16.4697 3.53033L21.4697 8.53033L22.5303 7.46967ZM22 7.25H7V8.75H22V7.25Z" fill="#33363F"/>
</svg>
